{"accessors" : [{"bufferView" : 0, "byteOffset" : 0, "componentType" : 5123, "count" : 4308, "type" : "SCALAR", "max" : [709], "min" : [0]}, {"bufferView" : 1, "byteOffset" : 0, "componentType" : 5126, "count" : 710, "type" : "VEC3", "max" : [43.52399826049805, 44.62699890136719, 22.92799949645996], "min" : [-55.030399322509766, -59.62699890136719, 3], "name" : "POSITION"}], "asset" : {"generator" : "Aspose.3D 24.9.1", "version" : "2.0"}, "buffers" : [{"uri" : "data:application/octet-stream;base64,", "byteLength" : 17144}], "bufferViews" : [{"buffer" : 0, "byteOffset" : 0, "byteLength" : 8616, "target" : 34963}, {"buffer" : 0, "byteOffset" : 8620, "byteLength" : 8520, "byteStride" : 12, "target" : 34962}], "meshes" : [{"primitives" : [{"attributes" : {"POSITION" : 1}, "indices" : 0, "mode" : 4}], "name" : ""}], "nodes" : [{"mesh" : 0, "name" : "group_0_15277357"}], "scene" : 0, "scenes" : [{"nodes" : [0]}]}
